<svg width="104" height="120" viewBox="0 0 104 120" fill="none" xmlns="http://www.w3.org/2000/svg">
<g clip-path="url(#clip0_846:29304)">
<path d="M79.8002 74.4999L79.6002 68.3999L79.4002 62.2999L79.2002 56.1999L79.1002 51.8999C78.8002 51.2999 78.6002 50.6999 78.3002 50.1999C78.0002 49.4999 77.6002 48.8999 77.2002 48.2999C76.8002 47.6999 76.4002 47.0999 76.0002 46.4999C75.6002 45.9999 75.3002 45.4999 74.9002 44.9999L71.1002 42.7999L65.8002 39.7999L60.5002 36.7999L55.2002 33.6999L51.3002 31.3999L47.6002 33.6999L47.7002 34.0999V34.1999C47.3002 34.2999 46.9002 34.2999 46.5002 34.3999L42.3002 36.9999L27.9002 45.8999C27.6002 46.2999 27.3002 46.6999 27.0002 47.1999C26.6002 47.7999 25.1002 50.4999 24.8002 51.0999C24.7002 51.2999 24.6002 51.4999 24.5002 51.6999H24.2002V74.8999H24.5002C24.6002 75.0999 24.7002 75.1999 24.7002 75.3999C25.2002 76.4999 25.8002 77.5999 26.4002 78.5999C26.8002 79.2999 27.3002 79.9999 27.8002 80.6999L27.4002 81.3999C27.4002 81.3999 27.4002 81.4999 27.4002 81.5999L28.2002 82.0999L33.6002 84.9999L39.0002 87.8999L44.4002 90.7999L48.2002 92.7999C48.4002 92.7999 48.6002 92.7999 48.7002 92.8999V93.0999L49.7002 93.5999L52.3002 94.9999L54.8002 93.4999L56.3002 92.5999C56.3002 92.5999 56.3002 92.5999 56.4002 92.5999L60.1002 90.4999L65.4002 87.4999L70.7002 84.4999L75.6002 81.6999L75.3002 81.3999C75.4002 81.1999 75.5002 81.0999 75.7002 80.8999C76.4002 79.8999 77.0002 78.9999 77.6002 77.8999L77.5002 77.7999L77.6002 77.8999C77.9002 77.3999 78.2002 76.7999 78.5002 76.1999C78.9002 76.0999 79.3002 75.9999 79.8002 75.8999V74.4999ZM33.1002 43.5999L31.8002 43.2999L33.1002 43.5999Z" fill="#236D4D"/>
<path d="M52.1001 38.8L60.5001 36.6L55.2001 33.5L52.1001 38.8Z" fill="#1D3D77"/>
<path d="M57.4001 41.8996L62.7001 44.8996L60.5001 36.5996L57.4001 41.8996Z" fill="black"/>
<path d="M52.1001 38.7996L57.4001 41.8996L60.5001 36.5996L52.1001 38.7996Z" fill="#262664"/>
<path d="M62.7 44.8996L65.8 39.5996L60.5 36.5996L62.7 44.8996Z" fill="#EAEC59"/>
<path d="M62.7002 44.8996L71.1002 42.6996L65.8002 39.5996L62.7002 44.8996Z" fill="#D2E001"/>
<path d="M62.7002 44.8997L68.0002 47.9997L71.1002 42.6997L62.7002 44.8997Z" fill="#90C32F"/>
<path d="M30.2001 75.3998L24.1001 69.2998V74.8998H24.4001C24.5001 75.0998 24.6001 75.1998 24.6001 75.3998H30.2001Z" fill="#1D3D77"/>
<path d="M30.3001 76.1999L30.2001 75.3999L28.1001 77.4999L30.3001 76.1999Z" fill="#38728D"/>
<path d="M30.2001 69.2997V63.1997L24.1001 69.2997H30.2001Z" fill="black"/>
<path d="M30.2001 69.2998H24.1001L30.2001 75.3998V69.2998Z" fill="#262664"/>
<path d="M30.2001 63.1997H24.1001V69.2997L30.2001 63.1997Z" fill="#EAEC59"/>
<path d="M24.1001 63.1996H30.2001L24.1001 57.0996V63.1996Z" fill="#D2E001"/>
<path d="M30.2001 57.0998V51.4998L29.9001 51.2998L24.1001 57.0998H30.2001Z" fill="#008361"/>
<path d="M30.2001 63.1996V57.0996H24.1001L30.2001 63.1996Z" fill="#90C32F"/>
<path d="M73 75.8999L70.8 84.1999L75.7 81.3999L75.4 81.0999C75.5 80.8999 75.6 80.7999 75.8 80.5999L73 75.8999Z" fill="#1D3D77"/>
<path d="M67.7001 79L62.4001 82L70.7001 84.3L67.7001 79Z" fill="black"/>
<path d="M67.7002 78.9999L70.7002 84.2999L73.0002 75.8999L67.7002 78.9999Z" fill="#262664"/>
<path d="M62.4001 82L65.4001 87.3L70.7001 84.3L62.4001 82Z" fill="#EAEC59"/>
<path d="M62.4001 82L60.1001 90.4L65.4001 87.3L62.4001 82Z" fill="#D2E001"/>
<path d="M62.4001 82L57.1001 85.1L60.1001 90.4L62.4001 82Z" fill="#90C32F"/>
<path d="M79.8 74.5L73.7 74.7L75.9 76.7L73 75.9L75.7 80.6C76.4 79.6 77 78.7 77.6 77.6L77.5 77.5L77.6 77.6C77.9 77.1 78.2 76.5 78.5 75.9C78.9 75.8 79.3 75.7 79.8 75.6V74.5Z" fill="#0A5493"/>
<path d="M73.7002 74.6999L79.8002 74.4999L79.6002 68.3999L73.7002 74.6999Z" fill="#1D3D77"/>
<path d="M73.7 74.6997V75.4997L73 75.8997L75.9 76.6997L73.7 74.6997Z" fill="#38728D"/>
<path d="M73.3 62.5L73.5 68.6L79.6 68.4L73.3 62.5Z" fill="black"/>
<path d="M73.5 68.5999L73.7 74.6999L79.6 68.3999L73.5 68.5999Z" fill="#262664"/>
<path d="M79.4 62.2998L73.3 62.4998L79.6 68.3998L79.4 62.2998Z" fill="#EAEC59"/>
<path d="M73.3 62.4997L79.4 62.2997L79.2 56.1997L73.3 62.4997Z" fill="#D2E001"/>
<path d="M79.2 56.1997L73.2 50.5997L71.1 42.6997L68 47.9997L72.9 50.7997L73.1 56.3997L79.2 56.1997Z" fill="#008361"/>
<path d="M73.1001 56.3997L73.3001 62.4997L79.2001 56.1997L73.1001 56.3997Z" fill="#90C32F"/>
<path d="M79.2002 56.1997L79.1002 51.8997C78.8002 51.2997 78.6002 50.6997 78.3002 50.1997L73.8002 50.2997L76.1002 46.3997C75.7002 45.8997 75.4002 45.3997 75.0002 44.8997L71.2002 42.6997L73.3002 50.5997L79.2002 56.1997ZM73.7002 50.2997L73.6002 50.3997L73.7002 50.2997Z" fill="#236D4D"/>
<path d="M76.0002 46.3999L73.7002 50.2999L77.2002 48.1999C76.8002 47.5999 76.4002 46.9999 76.0002 46.3999Z" fill="#254186"/>
<path d="M77.2002 48.1997L73.7002 50.2997L78.2002 50.1997C77.9002 49.4997 77.6002 48.7997 77.2002 48.1997Z" fill="#254186"/>
<path d="M51.2 31.2998L47.5 33.5998L47.6 33.8998L50.6 38.7998L51.3 35.8998L52.1 38.7998L55.2 33.4998L51.2 31.2998Z" fill="#0A5493"/>
<path d="M42.2002 36.9L50.6002 38.9L47.5002 34V34.1C47.1002 34.2 46.7002 34.2 46.3002 34.3L42.2002 36.9Z" fill="#1D3D77"/>
<path d="M51.3001 35.8999L50.6001 38.7999L51.4001 38.3999L52.1001 38.7999L51.3001 35.8999Z" fill="#38728D"/>
<path d="M40.2002 45.2999L45.4002 42.0999L42.2002 36.8999L40.2002 45.2999Z" fill="black"/>
<path d="M45.4002 42.0999L50.6002 38.7999L42.2002 36.8999L45.4002 42.0999Z" fill="#262664"/>
<path d="M40.2 45.2999L42.2 36.8999L37 40.0999L40.2 45.2999Z" fill="#EAEC59"/>
<path d="M40.2001 45.2996L37 40.0996L31.8 43.2996L40.2001 45.2996Z" fill="#D2E001"/>
<path d="M30.2001 51.4998L35.0001 48.4998L31.8001 43.2998L29.9001 51.2998L30.2001 51.4998Z" fill="#008361"/>
<path d="M35 48.4998L40.2001 45.2998L31.8 43.2998L35 48.4998Z" fill="#90C32F"/>
<path d="M29.4001 51H24.7001C24.6001 51.2 24.5001 51.4 24.4001 51.6H24.1001V57L29.9001 51.2L29.4001 51Z" fill="#236D4D"/>
<path d="M27.8001 45.7998C27.5001 46.1998 27.2001 46.5998 26.9001 47.0998L29.4001 50.9998L29.9001 51.2998L31.8001 43.2998L27.8001 45.7998Z" fill="#236D4D"/>
<path d="M26.9002 47.0996C26.5002 47.6996 26.1002 48.3996 25.7002 48.9996C25.3002 49.6996 25.0002 50.2996 24.7002 50.9996H29.4002L26.9002 47.0996Z" fill="#254186"/>
<path d="M28.1001 77.4999L30.2001 75.3999H24.6001C25.1001 76.4999 25.7001 77.5999 26.3001 78.5999C26.7001 79.2999 27.2001 79.9999 27.7001 80.6999L27.3001 81.3999C27.3001 81.3999 27.3001 81.4999 27.3001 81.5999L28.1001 82.0999L31.0001 76.6999L28.1001 77.4999Z" fill="#0A5493"/>
<path d="M31.0001 76.5996L28.1001 81.9996L33.5001 84.8996L31.0001 76.5996Z" fill="#1D3D77"/>
<path d="M30.3001 76.1997L28.1001 77.4997L31.0001 76.5997L30.3001 76.1997Z" fill="#38728D"/>
<path d="M41.8 82.4L36.4 79.5L33.5 84.9L41.8 82.4Z" fill="black"/>
<path d="M36.4 79.4996L31 76.5996L33.5 84.8996L36.4 79.4996Z" fill="#262664"/>
<path d="M41.8 82.3999L33.5 84.8999L38.9 87.6999L41.8 82.3999Z" fill="#EAEC59"/>
<path d="M41.8001 82.3999L38.9001 87.6999L44.3001 90.5999L41.8001 82.3999Z" fill="#D2E001"/>
<path d="M60.1 90.3996L57.1 85.0996L52.2001 87.8996L47.2001 85.1996L44.3 90.5996L52.2001 88.1996L60.1 90.3996Z" fill="#008361"/>
<path d="M47.2001 85.1999L41.8 82.3999L44.3 90.5999L47.2001 85.1999Z" fill="#90C32F"/>
<path d="M54.8002 93.3998L52.2002 88.8998V88.7998L49.7002 93.4998L52.3002 94.8998V94.1998V94.8998L54.8002 93.3998Z" fill="#254186"/>
<path d="M52.2001 88.1997L44.3 90.5997L48.1 92.5997C48.3 92.5997 48.5 92.5997 48.6 92.6997V92.8997L49.6 93.3997L52.1 88.7997L54.7001 93.2997L56.2001 92.3997C56.2001 92.3997 56.2 92.3997 56.3 92.3997L60 90.2997L52.2001 88.1997Z" fill="#236D4D"/>
<path d="M51.4001 38.3999L62.7001 44.8999L72.9001 50.7999L73.3001 62.4999L73.7 75.4999L62.4001 81.9999L52.2001 87.8999L41.8 82.3999L30.3 76.3999V63.2999V51.5999C30.3 51.5999 40.3 45.1999 40.3 45.3999C40.2 45.3999 51.4001 38.3999 51.4001 38.3999Z" fill="#842A49"/>
<path d="M54.2999 47.0998L57.3999 41.8998L52.0999 38.7998L54.2999 47.0998Z" fill="#5F0A4C"/>
<path d="M54.3 47.0999L62.7001 44.8999L57.4001 41.8999L54.3 47.0999Z" fill="#F7E500"/>
<path d="M59.5999 50.1999L64.8999 53.1999L62.6999 44.8999L59.5999 50.1999Z" fill="#AB722E"/>
<path d="M54.3 47.0999L59.6 50.1999L62.7001 44.8999L54.3 47.0999Z" fill="#DAA634"/>
<path d="M64.8999 53.2L71.8999 51.4L72.8999 50.8L67.9999 48L64.8999 53.2Z" fill="#842A49"/>
<path d="M64.9 53.1999L68 47.9999L62.7 44.8999L64.9 53.1999Z" fill="#8A3D36"/>
<path d="M66.7999 54.3999L71.8999 51.3999L64.8999 53.1999L66.7999 54.3999Z" fill="#682240"/>
<path d="M36.4 69.2998H30.2V75.3998L36.4 69.2998Z" fill="#5F0A4C"/>
<path d="M30.2 63.1997V69.2997H36.4L30.2 63.1997Z" fill="#F7E500"/>
<path d="M36.4 63.2001V57.1001L30.2 63.2001H36.4Z" fill="#AB722E"/>
<path d="M36.4 63.1997H30.2L36.4 69.2997V63.1997Z" fill="#DAA634"/>
<path d="M36.4 57.1001H30.2V63.2001L36.4 57.1001Z" fill="#8A3D36"/>
<path d="M64.5999 73.6997L67.6999 78.9997L72.9999 75.8997L64.5999 73.6997Z" fill="#5F0A4C"/>
<path d="M62.3999 81.9997L67.6999 78.9997L64.5999 73.6997L62.3999 81.9997Z" fill="#F7E500"/>
<path d="M59.3 76.7998L54 79.7998L62.4 81.9998L59.3 76.7998Z" fill="#AB722E"/>
<path d="M59.3 76.7997L62.4001 81.9997L64.6 73.6997L59.3 76.7997Z" fill="#DAA634"/>
<path d="M54 79.7998L57.1 85.0998L62.4 81.9998L54 79.7998Z" fill="#8A3D36"/>
<path d="M73.7 74.6997L73.2 75.1997L73 75.8997L73.7 75.4997V74.6997Z" fill="#A7468F"/>
<path d="M73.4999 68.6001L67.3999 68.8001L73.6999 74.7001L73.4999 68.6001Z" fill="#5F0A4C"/>
<path d="M73.6999 74.6998L67.3999 68.7998V71.9998L64.5999 73.6998L72.9999 75.8998L72.3999 74.7998L73.6999 74.6998Z" fill="#931276"/>
<path d="M73.6999 74.6997L72.3999 74.7997L73.1999 75.1997L72.3999 74.7997L72.9999 75.8997L73.1999 75.1997L73.6999 74.6997Z" fill="#783789"/>
<path d="M67 56.6001L67.2 62.7001L73.3 62.5001L67 56.6001Z" fill="#AB722E"/>
<path d="M67.2 62.7L67.4 68.8L73.3 62.5L67.2 62.7Z" fill="#DAA634"/>
<path d="M71.9 51.3998L67 56.5998L73.1 56.3998L72.9 50.7998L71.9 51.3998Z" fill="#842A49"/>
<path d="M67 56.5999L73.3 62.4999L73.1 56.3999L67 56.5999Z" fill="#8A3D36"/>
<path d="M66.8 54.3999L67 56.5999L71.9 51.3999L66.8 54.3999Z" fill="#682240"/>
<path d="M51.3999 38.9999L52.0999 38.7999L51.3999 38.3999L50.5999 38.7999L51.3999 38.9999Z" fill="#A7468F"/>
<path d="M45.3999 42.0998L48.6999 47.1998L50.5999 38.7998L45.3999 42.0998Z" fill="#5F0A4C"/>
<path d="M48.7 47.2001L45.4 42.1001L40.2 45.3001L48.7 47.2001Z" fill="#F7E500"/>
<path d="M51.5 45.5998L54.2999 47.0998L52.0999 38.7998L51.4 39.8998L50.5999 38.7998L48.7 47.1998L51.5 45.5998Z" fill="#931276"/>
<path d="M52.0999 38.7998L51.3999 38.9998L50.5999 38.7998L51.3999 39.8998L52.0999 38.7998Z" fill="#783789"/>
<path d="M38.3 53.6998L43.5 50.3998L40.2001 45.2998L38.3 53.6998Z" fill="#AB722E"/>
<path d="M43.5 50.3998L48.7 47.1998L40.2 45.2998L43.5 50.3998Z" fill="#DAA634"/>
<path d="M31.2999 52.1L38.2999 53.7L35 48.5L30.2 51.5V57.1H36.4L31.2999 52.1Z" fill="#842A49"/>
<path d="M38.3 53.6998L40.2 45.2998L35 48.4998L38.3 53.6998Z" fill="#8A3D36"/>
<path d="M38.3 53.7L31.3 52V52.1L36.4001 57.1L36.5 54.9L38.3 53.7Z" fill="#682240"/>
<path d="M31 76.5999L30.7999 75.8999L30.2 75.3999L30.2999 76.1999L31 76.5999Z" fill="#A7468F"/>
<path d="M36.4 79.5001L39.3 74.1001L31 76.6001L36.4 79.5001Z" fill="#5F0A4C"/>
<path d="M39.2999 74.1001L36.3999 79.5001L41.7999 82.4001L39.2999 74.1001Z" fill="#F7E500"/>
<path d="M39.2999 74.0998L36.5 72.4998L36.4 69.2998L30.2 75.3998H31.6L31 76.5998L39.2999 74.0998Z" fill="#931276"/>
<path d="M31.6 75.3999H30.3L30.8 75.8999L31 76.5999L31.6 75.3999Z" fill="#783789"/>
<path d="M50.1 79.9L44.7001 77L41.8 82.4L50.1 79.9Z" fill="#AB722E"/>
<path d="M44.7001 77.0001L39.3 74.1001L41.8 82.4001L44.7001 77.0001Z" fill="#DAA634"/>
<path d="M57.0999 85.0998L54 79.7998L52.2 86.6998L50.0999 79.8998L47.2 85.1998L52.2 87.8998L57.0999 85.0998Z" fill="#842A49"/>
<path d="M50.1 79.8999L41.8 82.3999L47.2001 85.1999L50.1 79.8999Z" fill="#8A3D36"/>
<path d="M52.0999 80.7998L50.0999 79.8998L52.1999 86.6998L53.9999 79.7998L52.0999 80.7998Z" fill="#682240"/>
<path d="M67.3999 68.8L73.4999 68.6L73.2999 62.5L67.3999 68.8Z" fill="#F7E500"/>
<path d="M51.4999 45.6001L54.3999 47.1001L64.9999 53.2001L66.7999 54.4001L66.9999 56.6001L67.3999 68.8001V72.0001L64.5999 73.7001L59.2999 76.7001L53.9999 79.8001L52.0999 80.8001L50.0999 79.9001L39.2999 74.1001L36.3999 72.5001V69.3001V57.0001L36.4999 54.9001L38.2999 53.7001L48.6999 47.2001L51.4999 45.6001Z" fill="#E57F00"/>
<path d="M56.5999 55.5002L64.9999 53.2002L59.6999 50.2002L56.5999 55.5002Z" fill="#E57F00"/>
<path d="M56.5999 55.5001L59.6999 50.2001L54.3999 47.1001L56.5999 55.5001Z" fill="#EA9800"/>
<path d="M36.3999 57.1001V63.2001H42.4999L36.3999 57.1001Z" fill="#E57F00"/>
<path d="M42.4999 63.2002H36.3999V69.3002L42.4999 63.2002Z" fill="#EA9800"/>
<path d="M54 79.8L59.3 76.7L56.3 71.5L54 79.8Z" fill="#E57F00"/>
<path d="M56.2998 71.5L59.2998 76.8L64.5998 73.7L56.2998 71.5Z" fill="#EA9800"/>
<path d="M65.3999 70.9003L64.5999 73.7003L67.3999 72.0003V68.8003L65.3999 70.9003Z" fill="#C7233C"/>
<path d="M61.0999 62.9001L67.1999 62.7001L66.9999 56.6001L61.0999 62.9001Z" fill="#E57F00"/>
<path d="M67.1999 62.7002L61.0999 62.9002L67.3999 68.8002L67.1999 62.7002Z" fill="#EA9800"/>
<path d="M62.1998 69.0999L61.9998 68.9999L62.1998 69.0999L67.3998 68.7999L61.0998 62.8999V68.4999L56.2998 71.4999L64.5998 73.6999L62.1998 69.0999Z" fill="#F0C000"/>
<path d="M67.4 68.8003L62.2 69.1003L64.5999 73.7003L65.4 70.9003L67.4 68.8003Z" fill="#93232C"/>
<path d="M63.2999 56.5002L64.9999 53.2002L56.5999 55.5002L60.5999 58.1002L61.0999 62.9002L66.9999 56.6002L63.2999 56.5002Z" fill="#D93B15"/>
<path d="M66.9998 56.6002L65.4998 55.2002L64.9998 53.2002L63.2998 56.5002L66.9998 56.6002Z" fill="#CD1858"/>
<path d="M51.5 45.6001L48.7 47.2001L51.5 47.9001L54.4 47.1001L51.5 45.6001Z" fill="#C7233C"/>
<path d="M46.6998 55.5999L43.4998 50.3999L38.2998 53.6999L46.6998 55.5999Z" fill="#E57F00"/>
<path d="M43.5 50.4002L46.7 55.6002L48.7 47.2002L43.5 50.4002Z" fill="#EA9800"/>
<path d="M56.5999 55.5001L54.4 47.1001L51.5999 51.5001L48.7 47.2001L46.7 55.6001L51.5999 52.8001L56.5999 55.5001Z" fill="#F0C000"/>
<path d="M54.4 47.1001L51.5 47.9001L48.7 47.2001L51.5999 51.5001L54.4 47.1001Z" fill="#93232C"/>
<path d="M46.6999 55.6002L38.2999 53.7002L39.9999 56.9002L36.3999 57.1002L42.4999 63.2002L42.7999 58.4002L46.6999 55.6002Z" fill="#D93B15"/>
<path d="M39.9999 56.9002L38.2999 53.7002L37.7999 55.7002L36.3999 57.1002L39.9999 56.9002V56.8002V56.9002Z" fill="#CD1858"/>
<path d="M38.3999 71.3003L36.3999 69.3003L36.4999 72.5003L39.2999 74.1003L38.3999 71.3003Z" fill="#C7233C"/>
<path d="M47.5999 71.6001L44.7 77.0001L50.0999 79.9001L47.5999 71.6001Z" fill="#E57F00"/>
<path d="M44.6998 77.0001L47.5998 71.6001L39.2998 74.1001L44.6998 77.0001Z" fill="#EA9800"/>
<path d="M39.2999 74.1002L47.5999 71.6002L42.6999 68.8002L42.4999 63.2002L36.3999 69.3002L41.5999 69.5002L39.2999 74.1002Z" fill="#F0C000"/>
<path d="M41.5999 69.5003L36.3999 69.3003L38.3999 71.3003L39.2999 74.1003L41.5999 69.5003Z" fill="#93232C"/>
<path d="M56.2999 71.5L51.9999 73.6L47.5999 71.6L50.0999 79.9L51.9999 76.8L53.9999 79.8L56.2999 71.5Z" fill="#D93B15"/>
<path d="M53.9999 79.8003L51.9999 76.8003L50.0999 79.9003L52.0999 79.3003L53.9999 79.8003Z" fill="#CD1858"/>
<path d="M53.9999 79.8003L52.0999 79.3003L50.0999 79.9003L52.0999 80.8003L53.9999 79.8003Z" fill="#9F253E"/>
<path d="M65.4999 55.2002L66.9999 56.6002L66.7999 54.4002L64.8999 53.2002L65.4999 55.2002Z" fill="#9F253E"/>
<path d="M36.4999 54.9002L36.3999 57.1002L37.7999 55.7002L38.2999 53.7002L36.4999 54.9002Z" fill="#9F253E"/>
<path d="M51.7 60.4004L54.2999 61.9004L54.4 64.8004L51.7999 66.3004L49.2 64.9004L49.2999 62.0004L51.7 60.4004Z" fill="#E57F00"/>
<path d="M54.2999 63.4004L52.2 63.6004L53.2 65.5004L54.4 64.8004L54.2999 63.4004Z" fill="#EEAF00"/>
<path d="M49.2 64.9005L50.5 65.5005L51.4 63.6005L49.2 63.5005V64.9005Z" fill="#EEAF00"/>
<path d="M51.7001 60.4004L50.6001 61.2004L51.8001 62.9004L52.9001 61.1004L51.7001 60.4004Z" fill="#EEAF00"/>
<path d="M51.7999 63.3003H51.9V63.4003L51.7999 63.5003L51.7 63.4003V63.3003H51.7999Z" fill="#EA9800"/>
<path d="M51.6001 52.8003L56.6001 55.4003L60.6001 58.2003L61.1001 62.9003V68.5003L56.3001 71.5003L52.0001 73.6003L47.7001 71.6003L42.8001 68.8003L42.6001 63.2003L42.9001 58.4003L46.8001 55.6003L51.6001 52.8003Z" fill="#E57F00"/>
<path d="M57.6 66.6004L56.3 71.5004L61.1 68.5004V62.9004L57.6 66.6004Z" fill="#EA9800"/>
<path d="M57.8 59.8005L56.6 55.5005L53 61.1005L54.3 61.9005V63.4005L61.1 62.9005L57.8 59.8005Z" fill="#E16621"/>
<path d="M51.5999 52.8003L46.7 55.6003L51.7 56.8003L56.5999 55.5003L51.5999 52.8003Z" fill="#EA9800"/>
<path d="M42.5 63.2L49.2 63.5V62L45.7 60L42.5 63.2Z" fill="#E16621"/>
<path d="M46.7 55.6001L45.7 60.0001L49.2 62.0001H49.2999L50.5999 61.2001L46.7 55.6001Z" fill="#E16621"/>
<path d="M47.6 71.6002L46.1 66.8002L42.5 63.2002L42.7 68.8002L47.6 71.6002Z" fill="#EA9800"/>
<path d="M53.2001 65.5005L51.8 66.3005L51.9001 70.4005L56.3 71.5005L53.2001 65.5005Z" fill="#E16621"/>
<path d="M50.5001 65.6006L47.6001 71.7006L51.9001 70.4006L51.8001 66.3006L50.5001 65.6006Z" fill="#E16621"/>
<path d="M56.6001 55.5005C56.7001 55.6005 60.6001 58.2005 60.6001 58.2005L61.1001 63.0005L57.7001 59.9005L56.6001 55.5005Z" fill="#CA2415"/>
<path d="M46.7 55.6001L45.7 60.0001L42.5 63.2001L42.8 58.4001L46.7 55.6001Z" fill="#CA2415"/>
<path d="M51.9 73.6003L56.2 71.5003L51.9 70.3003L47.5 71.6003L51.9 73.6003Z" fill="#CA2415"/>
<path d="M57.9 105.7L58.1 105.6V101.7H57.1H56.3V99.5V98.2V97.9V97.7V97.6V96V92.5L54.8 93.4L52.3 94.9L49.7 93.5L48.7 93V95.5V98.4V99.9V101.8H47.8H47V107.8V108.1L48.1 114H48.3L49 110H50.1L51 114.8L51.1 114.9L51 114.8L51.1 115.5L51.3 116.4L52 120.1H52.8H53.3L54.1 116.2L54.3 115.4L54.4 114.7L55.4 110H56.8L57.2 112.8H57.4L57.8 110.3L58 108V107.6V107.4V105.6L57.9 105.7Z" fill="#61B400"/>
<path d="M55.8999 106.9L57.9999 107.5V105.6L55.8999 106.9Z" fill="#E57F00"/>
<path d="M54.8 93.4L56.3 96L56.4001 92.5L54.8 93.4Z" fill="#008B0E"/>
<path d="M52.6001 101.7L55.5001 106.8H55.7001L57.1001 101.8L56.3001 101.7V99.6001L52.6001 101.7Z" fill="#00981C"/>
<path d="M52.3999 101.8L52.5999 101.7L52.3999 101.4V101.8Z" fill="#236D4D"/>
<path d="M58 107.5L55.9 106.9L55.7 106.8L55.7999 106.9V107L57.7 110.3L58 108V107.6V107.5Z" fill="#F0B533"/>
<path d="M55.7 106.8H55.5L55.6 106.9L55.7 106.8Z" fill="#236D4D"/>
<path d="M49.1 107L46.9001 105.8L46.8 107.7L49.1 107Z" fill="#E57F00"/>
<path d="M49.7 93.4999L48.7 92.8999V95.3999L49.7 93.4999Z" fill="#008B0E"/>
<path d="M52.3001 97.1999L56.3001 98.2999V95.9999L54.8001 93.3999L52.3001 94.8999L49.7001 93.4999L48.7001 95.3999L48.6001 98.2999L52.3001 97.1999Z" fill="#007B8E"/>
<path d="M49.2999 106.9H49.5L52.2 101.7L48.5999 99.7998V101.7H47.7L49.2999 106.9Z" fill="#00981C"/>
<path d="M52.3001 97.2002L48.6001 98.3002V99.8002L52.2001 101.7L52.4001 101.4L52.6001 101.7L56.3001 99.6002V98.3002L52.3001 97.2002Z" fill="#156B6B"/>
<path d="M52.4 101.4L52.2 101.7L52.4 101.8V101.4Z" fill="#236D4D"/>
<path d="M49.2 107V107.2L49.2999 107.1L49.2 107Z" fill="#61B400"/>
<path d="M49.2999 106.9L49.2 107L49.2999 107.1V106.9Z" fill="#61B400"/>
<path d="M49.3 106.9L49.1 107L46.8 107.7V107.9V108L47.3 110.6L49.2001 107.2V107L49.3 106.9Z" fill="#F0B533"/>
<path d="M53.5 115.2L52.7 118L51.7999 115.2L51.2 116.3L51.9 120H52.7H53.2L54 116.1L53.5 115.2Z" fill="#00981C"/>
<path d="M49.4001 107L49.5 106.9H49.3L49.4001 107Z" fill="#236D4D"/>
<path d="M55.4999 107L55.5999 106.9L55.4999 106.8L52.5999 101.7L52.3999 101.8L52.1999 101.7L49.4999 106.9L49.3999 107L49.4999 107.1L52.4999 108.7V108.6L55.4999 107Z" fill="#236D4D"/>
<path d="M52.7001 115.6L53.5 115.2V115.1L52.6 113.7L51.8 115.2L52.6 115.6H52.7001Z" fill="#146C6F"/>
<path d="M53.5 115.2L52.6 115.6L51.8 115.2L52.7001 118L53.5 115.2Z" fill="#008489"/>
<path d="M55.6 106.9L55.5 107L52.5 108.6V108.7L49.5 107.1L49.4001 107L49.3 106.9V107.1L51.8 115.2L52.6 113.7L53.5 115.2L55.7001 107V106.8L55.6 106.9Z" fill="#4DAD2C"/>
<path d="M48.0999 92.6L44.2999 90.6L38.8999 87.7L33.4999 84.8L28.0999 82L27.2999 81.5C27.3999 81.7 27.5999 82 27.8999 82.4C28.0999 82.7 28.3999 83 28.6999 83.3L25.8999 86.3L25.0999 87L24.8999 87.2H24.7999H23.1999L23.7999 86.6L24.0999 86.3L23.3999 86.4L22.4999 86.5L22.8999 86.1L23.3999 85.6L21.9999 85.7H21.5999L21.6999 85.5L22.3999 84.8L20.7999 84.9L21.5999 84L19.9999 84.1H19.8999V84.2L19.9999 84.6L20.9999 88.6L21.8999 92.5L21.9999 93.1L22.5999 95.7C22.3999 96.1 21.3999 97 21.3999 97L21.7999 97.3L22.0999 97.6C22.0999 97.6 22.2999 97.4 22.4999 97.1C22.7999 96.8 23.0999 96.4 23.3999 96.3L24.4999 96.5L26.9999 97L28.2999 97.2L32.2999 97.9L33.3999 98.1L35.2999 98.5C35.7999 98.2 36.0999 98 36.3999 97.8L34.5999 98L35.3999 97.1L33.7999 97.2H33.6999L33.9999 97L34.6999 96.3H34.3999L32.9999 96.4L33.7999 95.5L32.1999 95.6L32.9999 94.7L31.6999 94.8L32.2999 94.2L34.2999 92.1L35.3999 90.9L36.0999 90.2C36.4999 90.5 36.7999 90.8 37.0999 91C37.2999 91.2 37.4999 91.3 37.5999 91.4C37.8999 91.5 37.9999 91.6 38.0999 91.5L39.5999 90.2C40.3999 90.6 41.1999 90.9 42.0999 91.2C42.5999 91.4 43.0999 91.5 43.6999 91.7C43.9999 91.8 44.3999 91.9 44.7999 92C45.8999 92.3 46.9999 92.5 48.0999 92.6ZM33.2999 91.7L31.3999 93.7H30.0999L32.3999 91.3L31.5999 90.9L32.3999 91.3L34.4999 89.1C34.4999 89.1 34.6999 89.2 34.7999 89.4C34.9999 89.5 35.0999 89.7 35.1999 89.7L34.9999 89.9L33.2999 91.7ZM28.3999 86.4L26.6999 88.2L26.1999 88.7H25.5999H24.8999L25.4999 88.1L25.8999 87.7L26.5999 86.9L29.2999 84C29.3999 84.1 29.8999 84.5 29.8999 84.6L28.3999 86.4Z" fill="#1D6B41"/>
<path d="M25.0999 87L24.8999 87.2L25.1999 87.4L25.0999 87Z" fill="#6AA7DD"/>
<path d="M25.2 87.3999L21 88.5999L22 92.5999L22.3 92.7999L25.2 87.3999Z" fill="#65B8EB"/>
<path d="M27.7 95.6002L22.3 92.7002L22.1 93.1002L22.7 95.7002C22.5 96.1002 21.5 97.0002 21.5 97.0002L21.9 97.3002L22.6 97.1002C22.9 96.8002 23.2 96.4002 23.5 96.3002L24.6 96.5002L27.7 95.6002Z" fill="#F9EA22"/>
<path d="M22 92.6001L22.1 93.1001L22.3 92.8001L22 92.6001Z" fill="#F4DDA5"/>
<path d="M25.5998 88.6999L24.8998 88.7999L25.4998 88.1999L25.1998 87.3999L22.2998 92.7999L27.6998 95.5999L25.5998 88.6999Z" fill="#4FAFBC"/>
<path d="M27.6999 95.6001L24.5999 96.6001L26.9999 97.0001L27.6999 95.6001Z" fill="#F1E12A"/>
<path d="M22.1999 97.7002C22.1999 97.7002 22.3999 97.5002 22.5999 97.2002L21.8999 97.4002L22.1999 97.7002Z" fill="#F1E12A"/>
<path d="M27.7 95.6001L27 97.0001L28.2 97.3001L27.7 95.6001Z" fill="#EFB815"/>
<path d="M25.2 87.4L26.6 87L29.2999 84.1C29.3999 84.2 29.9 84.6 30 84.7L28.4 86.4L33.5 84.9L28.1 82L27.9 82.4C28.1 82.7 28.4 83 28.7 83.3L25.9 86.3L25.2 87.4Z" fill="#00A29A"/>
<path d="M27.2998 81.6001C27.3998 81.8001 27.5998 82.1001 27.8998 82.5001L28.0998 82.1001L27.2998 81.6001Z" fill="#62B5BE"/>
<path d="M25.7999 86.2998L25.0999 86.9998L25.1999 87.3998L25.7999 86.2998Z" fill="#62B5BE"/>
<path d="M25.5 88.1999L25.9 87.6999L25.2 87.3999L25.5 88.1999Z" fill="#00959C"/>
<path d="M26.6999 88.2002L26.1999 88.7002H25.5999L27.6999 95.6002L30.5999 90.2002L26.6999 88.2002Z" fill="#00959C"/>
<path d="M33.2999 91.7002L31.4 93.6002L30.1 93.7002L32.5 91.2002L30.6 90.2002L27.7 95.6002L32.2999 94.2002L34.2999 92.2002L33.2999 91.7002Z" fill="#028B49"/>
<path d="M28.4 86.3999L26.7 88.1999L30.6 90.1999L33.5 84.8999L28.4 86.3999Z" fill="#008489"/>
<path d="M25.9 87.7L26.6 87L25.2 87.4L25.9 87.7Z" fill="#008489"/>
<path d="M27.7 95.6001L28.2 97.3001L32.2 98.0001L27.7 95.6001Z" fill="#C0A415"/>
<path d="M27.7 95.6002L32.2 98.0002L33.2999 98.2002L33.7999 97.2002L33.9 97.0002L34.2999 96.3002L33 96.4002L33.7999 95.5002L32.0999 95.7002L33 94.8002L31.7 94.9002L32.2999 94.2002L27.7 95.6002Z" fill="#246951"/>
<path d="M33.2998 98.2001L35.1998 98.6001C35.6998 98.3001 35.9998 98.1001 36.2998 97.9001L34.5998 98.0001L35.4998 97.1001L33.8998 97.2001L33.2998 98.2001Z" fill="#E1E717"/>
<path d="M33.8999 96.9998L34.5999 96.2998H34.2999L33.8999 96.9998Z" fill="#E1E717"/>
<path d="M44.2999 90.6002L38.8999 87.7002L37.0999 91.1002C37.6999 91.5002 37.9999 91.7002 38.0999 91.6002L39.5999 90.3002C40.3999 90.7002 41.1999 91.0002 42.0999 91.3002L44.2999 90.6002Z" fill="#8AC200"/>
<path d="M38.9 87.6998L33.5 84.7998L34.9 89.1998C35.1 89.2998 35.2 89.4998 35.3 89.4998L35 89.8998L35.4 90.9998L36.1 90.2998C36.5 90.5998 36.9 90.8998 37.2 91.0998L38.9 87.6998Z" fill="#BCD500"/>
<path d="M44.2999 90.6001L43.7 91.8001C44 91.9001 44.3999 92.0001 44.7999 92.1001L44.2999 90.6001Z" fill="#00981C"/>
<path d="M44.2999 90.6001L42.0999 91.3001C42.5999 91.5001 43.0999 91.6001 43.6999 91.8001L44.2999 90.6001Z" fill="#61B400"/>
<path d="M44.2998 90.6001L44.6998 92.0001C45.7998 92.3001 46.8998 92.5001 48.0998 92.6001L44.2998 90.6001Z" fill="#008B0E"/>
<path d="M22.4998 85.7998H22.2998V85.9998H22.4998V85.7998Z" fill="#9ACCF0"/>
<path d="M24.9 87.2H23.2L23.8 86.6L24.1 86.3L23.4 86.4L22.4 86.5L22.8 86.1L23.3 85.6L22 85.7H21.6L21.8 85.5L22.5 84.8L20.8 84.9L21.6 84L20 84.1V84.2L20.1 84.7L21 88.6L25.2 87.4L24.9 87.2Z" fill="#9ACCF0"/>
<path d="M56.9 27.5002C56.8 24.8002 56.3999 22.4002 55.7999 20.3002C55.7999 20.2002 55.8 20.1002 55.7 20.1002V20.0002C55.7 19.9002 55.6999 19.8002 55.5999 19.8002C55.0999 18.2002 54.6 16.9002 54.2 15.9002L54.7 15.5002L55.7 14.6002V13.8002H54.2H52.5C52.2 13.3002 51.9 12.8002 51.7 12.3002C51.4 11.8002 51.0999 11.3002 50.7999 10.9002C50.6999 10.7002 50.6 10.5002 50.5 10.4002C49.9 9.5002 49.3 8.7002 48.9 8.2002C48.7 8.0002 48.4999 7.7002 48.2999 7.6002V4.6002V3.2002V0.900195V0.200195L48.0999 0.500195L47.2999 1.8002V2.9002V5.2002V10.8002V11.7002V12.3002V13.8002H45.7V14.2002L47.2 15.3002L47.2999 15.4002V19.5002V20.5002V20.6002V22.3002V26.6002V29.4002V33.4002L47.4 33.7002L51.0999 31.4002L55 33.6002L56.5999 30.8002C56.6999 30.1002 56.7 29.4002 56.7 28.7002C56.9 28.2002 56.9 27.8002 56.9 27.5002Z" fill="#65B8EB"/>
<path d="M54.8 15.4002L55.8 14.6002V13.7002H54.3L54.8 15.4002Z" fill="#5AB4DF"/>
<path d="M56.8999 28.6002C56.8999 28.2002 56.8999 27.8002 56.8999 27.5002L52.9999 25.2002L51.2999 28.2002L49.4999 25.3002L47.5999 26.5002V29.3002L51.3999 30.2002V30.1002V30.2002L56.8999 28.6002Z" fill="#6AA7DD"/>
<path d="M52.8999 25.2002L51.0999 24.2002L49.3999 25.3002L51.1999 28.2002L52.8999 25.2002Z" fill="#87C2D4"/>
<path d="M55.6999 20.1001L51.0999 21.3001L47.3999 20.5001V22.2001L49.2999 25.3001L51.0999 24.2001V24.1001V24.2001L52.8999 25.2001L55.6999 20.3001C55.6999 20.2001 55.6999 20.2001 55.6999 20.1001Z" fill="#82BCE9"/>
<path d="M51.1999 30.1001L47.3999 29.2001V33.2001L47.4999 33.5001L51.1999 31.2001L55.0999 33.5001L56.6999 30.7001C56.7999 30.0001 56.7999 29.3001 56.7999 28.6001L51.1999 30.1001Z" fill="#62B5BE"/>
<path d="M47.3999 1.5998V2.7998L48.3999 2.9998V0.699805L48.0999 0.299805L47.3999 1.5998Z" fill="#BCD500"/>
<path d="M48.0999 0.3L48.3999 0.7L48.2999 0L48.0999 0.3Z" fill="#E0E51A"/>
<path d="M51.7999 12.1998C51.4999 11.6998 51.1999 11.1998 50.8999 10.7998C50.7999 10.5998 50.6999 10.3998 50.5999 10.2998L48.0999 11.7998L50.9999 12.4998L51.7999 12.1998Z" fill="#41ACC4"/>
<path d="M48.0999 11.8001L50.5999 10.3001C49.9999 9.4001 49.3999 8.6001 48.9999 8.1001L48.0999 11.8001Z" fill="#00959C"/>
<path d="M47.3999 2.7998V4.9998L48.3999 4.3998V2.9998L47.3999 2.7998Z" fill="#236D4D"/>
<path d="M47.3999 10.7002V11.6002L48.0999 11.8002L47.3999 10.7002Z" fill="#36A9B1"/>
<path d="M47.3999 4.9999V10.5999L48.0999 11.6999L48.9999 7.9999C48.7999 7.7999 48.5999 7.4999 48.3999 7.3999V4.3999L47.3999 4.9999Z" fill="#008489"/>
<path d="M55.6999 20.1001C55.6999 20.1001 55.6999 20.0001 55.6999 20.1001C55.6999 19.9001 55.5999 19.9001 55.5999 19.8001L50.9999 17.1001L47.3999 19.3001V20.3001V20.4001L51.0999 21.2001L55.6999 20.1001Z" fill="#9ACCF0"/>
<path d="M48.0999 11.8001L47.3999 11.6001V12.2001L48.0999 11.8001Z" fill="#47ACBB"/>
<path d="M48.1 11.7998L47.4001 12.1998V13.6998H45.8V14.0998L47.3 15.1998L48.1 11.7998Z" fill="#5AB4DF"/>
<path d="M51 17.1002L55.6 19.7002C55.1 18.1002 54.6001 16.8002 54.2001 15.8002L54.7001 15.4002L54.2001 13.7002H52.5L51 16.4002L48.1 11.7002L47.3 15.1002L47.4001 15.2002V19.3002L51 17.1002Z" fill="#00A4D9"/>
<path d="M50.9999 16.4002L52.5999 13.7002C52.2999 13.2002 51.9999 12.7002 51.7999 12.2002L50.9999 12.4002L48.0999 11.7002L50.9999 16.4002Z" fill="#0096D5"/>
<path d="M24.1001 57.1002V51.7002H21.2001H20.7001H20.3001C20.1001 51.7002 19.9001 51.9002 19.8001 52.4002C19.8001 52.5002 19.7001 52.6002 19.7001 52.7002C19.7001 52.8002 19.6001 52.9002 19.6001 53.0002C19.5001 53.2002 19.5001 53.5002 19.4001 53.7002H19.3001C19.2001 53.7002 19.1001 53.8002 19.1001 53.9002V54.0002H18.7001C18.7001 53.9002 18.6001 53.8002 18.5001 53.8002C18.5001 53.7002 18.4001 53.6002 18.3001 53.6002C18.3001 53.6002 18.3001 53.6002 18.2001 53.6002C18.1001 53.6002 18.0001 53.7002 18.0001 53.8002V53.9002H17.9001C17.8001 53.9002 17.7001 54.0002 17.7001 54.1002V54.3002H17.1001C16.8001 54.3002 16.6001 54.5002 16.4001 54.9002C15.5001 55.0002 14.7001 55.1002 14.7001 55.1002C14.3001 55.2002 13.9001 55.5002 13.8001 56.2002L13.1001 56.3002C13.0001 56.3002 12.9001 56.4002 12.9001 56.5002C12.9001 56.5002 12.9001 56.5002 12.9001 56.6002V56.7002H12.7001H12.2001H11.8001L9.5001 56.9002C9.4001 56.9002 9.3001 57.0002 9.3001 57.1002C9.3001 57.1002 9.3001 57.1002 9.3001 57.2002V57.4002C9.3001 57.5002 9.4001 57.7002 9.5001 57.7002L11.5001 57.9002L12.2001 58.0002L12.9001 58.1002V58.2002C12.9001 58.3002 13.0001 58.4002 13.1001 58.5002H13.5001H13.8001C13.8001 58.6002 13.9001 58.8002 13.9001 58.9002C14.0001 59.2002 14.3001 59.4002 14.5001 59.5002C14.6001 59.5002 14.6001 59.5002 14.7001 59.6002C14.7001 59.6002 14.9001 59.6002 15.2001 59.7002C15.1001 59.8002 15.1001 59.9002 15.0001 60.0002C15.0001 60.1002 14.9001 60.2002 14.9001 60.3002C14.8001 60.5002 14.8001 60.8002 14.6001 61.1002C14.5001 61.4002 14.5001 61.7002 14.4001 62.0002H12.9001H12.5001C12.3001 62.0002 12.2001 62.1002 12.2001 62.3002V63.1002H12.1001H11.0001C10.8001 63.1002 10.6001 63.2002 10.5001 63.3002C10.4001 63.4002 10.2001 63.6002 10.1001 63.8002C8.6001 63.9002 7.5001 64.0002 7.5001 64.0002C7.3001 64.0002 7.1001 64.1002 6.9001 64.3002C6.6001 64.5002 6.4001 64.9002 6.3001 65.4002H5.8001H5.3001C5.1001 65.4002 5.0001 65.6002 5.0001 65.7002V66.0002L2.7001 66.2002L0.400098 66.4002C0.200098 66.4002 0.100098 66.6002 0.100098 66.8002V67.1002C0.100098 67.3002 0.200098 67.4002 0.400098 67.5002L1.4001 67.6002L4.9001 68.0002V68.2002C4.9001 68.4002 5.0001 68.5002 5.2001 68.6002H5.7001H6.2001C6.2001 68.9002 6.3001 69.2002 6.5001 69.4002C6.7001 69.8002 7.1001 70.0002 7.4001 70.1002C7.4001 70.1002 8.5001 70.3002 9.7001 70.4002C9.8001 70.7002 10.0001 70.9002 10.2001 71.0002C10.3001 71.1002 10.5001 71.2002 10.6001 71.2002H11.8001V71.9002C11.8001 72.1002 11.9001 72.2002 12.1001 72.2002H12.5001H12.6001H14.0001C14.1001 72.5002 14.1001 72.8002 14.2001 73.1002C14.2001 73.1002 14.4001 73.6002 14.4001 73.9002C14.6001 74.5002 14.8001 74.8002 15.1001 74.8002C15.1001 74.8002 15.1001 74.8002 15.2001 74.8002C15.2001 74.8002 15.2001 74.8002 15.3001 74.8002H15.7001H16.5001H17.4001H18.0001H18.6001L24.2001 74.9002L24.1001 57.1002ZM11.8001 63.2002H10.7001H11.8001Z" fill="#61B400"/>
<path d="M11.9 69.3003L10.3 70.9003C10.4 71.0003 10.6 71.1003 10.7 71.1003H11.9V69.3003Z" fill="#F9EA22"/>
<path d="M11.9001 69.3003V71.1003V71.8003C11.9001 72.0003 12.0001 72.1003 12.2001 72.1003H12.6001H12.7001H14.1001C14.2001 72.4003 14.2001 72.7003 14.3001 73.0003C14.3001 73.0003 14.5001 73.5003 14.5001 73.8003C14.7001 74.4003 14.9001 74.7003 15.2001 74.7003H15.3001C15.3001 74.7003 15.3001 74.7003 15.4001 74.7003H15.8001H16.6001H17.5001L11.9001 69.3003Z" fill="#4FAFBC"/>
<path d="M5.80015 65.5H5.30015C5.10015 65.5 5.00015 65.7 5.00015 65.8V66L2.70015 66.2L1.40015 67.5L5.00015 67.9V68.1C5.00015 68.3 5.10015 68.4 5.30015 68.5H5.80015V65.5Z" fill="#E5811B"/>
<path d="M11.9001 69.3003H6.6001C6.8001 69.7003 7.2001 69.9003 7.5001 70.0003C7.5001 70.0003 8.6001 70.2003 9.8001 70.3003C9.9001 70.6003 10.1001 70.8003 10.3001 70.9003L11.9001 69.3003Z" fill="#F1E12A"/>
<path d="M11.9 69.3003L6.90005 64.3003C6.60005 64.5003 6.40005 64.9003 6.30005 65.4003H5.80005V68.4003H6.30005C6.30005 68.7003 6.40005 69.0003 6.60005 69.2003L11.9 69.3003Z" fill="#EFB815"/>
<path d="M2.7001 66.2002L0.400098 66.4002C0.200098 66.4002 0.100098 66.6002 0.100098 66.8002V67.1002C0.100098 67.3002 0.200098 67.4002 0.400098 67.5002L1.4001 67.6002L2.7001 66.2002Z" fill="#D93B15"/>
<path d="M24.1001 69.3003L18.6001 74.8003L24.1001 74.9003V69.3003Z" fill="#00A29A"/>
<path d="M18 63.2002V69.3002H24.1L18 63.2002Z" fill="#1D6B41"/>
<path d="M18.0001 69.3003H11.9001L17.4001 74.8003H18.0001V69.3003Z" fill="#00959C"/>
<path d="M18.0001 63.2002L11.9001 69.3002H18.0001V63.2002Z" fill="#028B49"/>
<path d="M24.1 69.3003H18V74.8003H18.6L24.1 69.3003Z" fill="#008489"/>
<path d="M11.9001 69.3002V63.2002H10.3001C10.2001 63.3002 10.0001 63.5002 9.90015 63.7002C8.70015 63.9002 7.50015 64.0002 7.50015 64.0002C7.30015 64.0002 7.10015 64.1002 6.90015 64.3002L11.9001 69.3002Z" fill="#C0A415"/>
<path d="M18.0001 63.2002H11.9001V69.3002L18.0001 63.2002Z" fill="#246951"/>
<path d="M11.9 63H10.8C10.6 63 10.4 63.1 10.3 63.2H11.9V63Z" fill="#C0A415"/>
<path d="M11.1001 57.8001L11.9001 57.9001V57.1001L11.1001 57.8001Z" fill="#F7E500"/>
<path d="M18 63.2004L14.7 59.9004C14.7 60.0004 14.6 60.1004 14.6 60.2004C14.5 60.4004 14.5 60.7004 14.3 61.0004C14.2 61.3004 14.2 61.6004 14.1 61.9004H12.6H12.2C12 61.9004 11.9 62.0004 11.9 62.2004V63.0004H11.8V63.2004H18Z" fill="#E1E717"/>
<path d="M11.9001 57.1001V57.9001L12.6001 58.0001V58.1001C12.6001 58.2001 12.7001 58.3001 12.8001 58.4001H13.2001L11.9001 57.1001Z" fill="#E1E717"/>
<path d="M13.6001 58.8003C13.7001 59.1003 14.0001 59.3003 14.2001 59.4003L13.6001 58.8003Z" fill="#E1E717"/>
<path d="M11.9001 57.1001H8.90015C8.90015 57.1001 8.90015 57.1001 8.90015 57.2001V57.4001C8.90015 57.5001 9.00015 57.7001 9.10015 57.7001L11.1001 57.9001L11.9001 57.1001Z" fill="#F7E500"/>
<path d="M11.9 57.1002L11.5 56.7002L9.2 56.9002C9.1 56.9002 9 57.0002 9 57.1002H11.9V57.1002Z" fill="#F7E500"/>
<path d="M24.1 63.2001V57.1001L18 63.2001H24.1Z" fill="#8AC200"/>
<path d="M24.1 63.2002H18L24.1 69.3002V63.2002Z" fill="#BCD500"/>
<path d="M18.0001 63.2001V57.1001H11.9001L13.2001 58.4001H13.5001C13.5001 58.5001 13.6001 58.7001 13.6001 58.8001L14.2001 59.4001C14.3001 59.4001 14.3001 59.4001 14.4001 59.5001C14.4001 59.5001 14.6001 59.5001 14.9001 59.6001C14.8001 59.7001 14.8001 59.8001 14.7001 59.9001L18.0001 63.2001Z" fill="#D5DC26"/>
<path d="M18 57.1001H24.1L19.5 52.6001C19.5 52.7001 19.4 52.8001 19.4 52.9001C19.3 53.1001 19.3 53.4001 19.2 53.6001H19.1C19 53.6001 18.9 53.7001 18.9 53.8001V54.0001H18.5C18.5 53.9001 18.4 53.8001 18.3 53.8001C18.3 53.7001 18.2 53.6001 18.1 53.6001C18.1 53.6001 18.1 53.6001 18 53.6001V57.1001Z" fill="#00981C"/>
<path d="M18 57.1001V53.6001C17.9 53.6001 17.8 53.7001 17.8 53.8001V53.9001H17.7C17.6 53.9001 17.5 54.0001 17.5 54.1001V54.3001H16.9C16.6 54.3001 16.4 54.5001 16.2 54.9001C15.3 55.0001 14.5 55.1001 14.5 55.1001C14.1 55.2001 13.7 55.5001 13.6 56.2001L12.9 56.3001L12.7 56.5001C12.7 56.5001 12.7 56.5001 12.7 56.6001V56.7001H12.5L12 57.2001L18 57.1001Z" fill="#BCD500"/>
<path d="M11.9 57.1001V56.6001L11.5 56.7001L11.9 57.1001Z" fill="#F7E500"/>
<path d="M12.4001 56.6001H11.9001V57.1001L12.4001 56.6001Z" fill="#BCD500"/>
<path d="M12.6001 56.4002L12.8001 56.2002C12.7001 56.2002 12.6001 56.3002 12.6001 56.4002Z" fill="#90C32F"/>
<path d="M24.1001 57.1002V51.7002H21.2001H20.7001H20.3001C20.3001 51.7002 20.3001 51.7002 20.2001 51.7002C20.0001 51.7002 19.8001 51.9002 19.7001 52.4002C19.7001 52.5002 19.6001 52.6002 19.6001 52.7002L24.1001 57.1002Z" fill="#008B0E"/>
<path d="M80.6999 90.5998L80.2999 90.1998L79.6999 90.3998L78.5999 89.2998C79.1999 88.6998 79.4999 87.9998 79.5999 87.1998C79.5999 86.9998 79.5999 86.7998 79.5999 86.5998C79.5999 86.4998 79.5999 86.3998 79.5999 86.1998C79.5999 85.9998 79.4999 85.8998 79.4999 85.6998L80.2999 84.8998L79.8999 84.4998H79.6999L79.2999 84.5998L76.8999 82.2998L75.7999 81.2998L70.8999 84.0998L65.5999 87.0998L60.2999 90.0998L56.5999 92.1998C57.6999 91.9998 58.8999 91.7998 59.8999 91.4998C60.1999 91.3998 60.5999 91.2998 60.8999 91.1998C61.3999 90.9998 61.8999 90.8998 62.3999 90.6998C62.7999 90.4998 63.1999 90.3998 63.5999 90.1998L64.7999 91.2998L66.9999 93.2998L68.1999 94.3998L69.0999 95.2998L68.9999 95.8998L69.3999 96.2998L70.1999 95.4998C70.3999 95.4998 70.4999 95.5998 70.6999 95.5998C71.7999 95.6998 72.8999 95.3998 73.6999 94.4998L74.7999 95.5998L74.6999 95.9998V96.1998L75.0999 96.5998L75.6999 95.9998C75.9999 96.1998 76.3999 96.2998 76.6999 96.2998C77.1999 96.3998 77.5999 96.3998 78.0999 96.1998C78.5999 96.0998 79.0999 95.8998 79.4999 95.4998L80.4999 96.0998L80.9999 95.5998L79.9999 94.8998C80.2999 94.3998 80.4999 93.7998 80.5999 93.2998C80.5999 93.0998 80.5999 92.8998 80.5999 92.6998C80.5999 92.1998 80.3999 91.6998 80.1999 91.1998L80.6999 90.5998Z" fill="#8AC200"/>
<path d="M79.0999 86.4996L79.4999 86.2996C79.4999 86.0996 79.3999 85.9996 79.3999 85.7996L80.1999 84.9996L79.7999 84.5996H79.5999L79.0999 86.4996Z" fill="#6AA7DD"/>
<path d="M79.6 86.5997C79.6 86.4997 79.6 86.3997 79.6 86.1997L79.2 86.3997L79.6 86.5997Z" fill="#9ACCF0"/>
<path d="M79.4999 87.2C79.4999 87 79.4999 86.8 79.4999 86.6L79.0999 86.5L79.4999 87.2Z" fill="#65B8EB"/>
<path d="M76.8999 94.7997L80.6999 95.7997L79.9999 94.8997C80.3999 94.1997 80.5999 93.3997 80.5999 92.6997L76.8999 94.7997Z" fill="#F9EA22"/>
<path d="M79.0999 86.5L76.8999 94.8L80.5999 92.7C80.5999 92.2 80.3999 91.7 80.1999 91.2L80.7999 90.6L80.3999 90.2L79.7999 90.4L78.6999 89.3C79.2999 88.7 79.5999 88 79.6999 87.2L79.0999 86.5Z" fill="#4FAFBC"/>
<path d="M76.8999 94.7998L77.7999 96.3998C78.2999 96.2998 78.7999 96.0998 79.1999 95.6998L80.1999 96.2998L80.6999 95.7998L76.8999 94.7998Z" fill="#F1E12A"/>
<path d="M76.9 94.7998L76.5 96.4998C77 96.5998 77.4 96.5998 77.9 96.3998L76.9 94.7998Z" fill="#F1E12A"/>
<path d="M70.7 84.2999L79.1 86.4999L76.8 82.4999L75.7 81.3999L70.7 84.2999Z" fill="#00A29A"/>
<path d="M79.0998 86.5L79.5998 84.6L79.1998 84.7L76.7998 82.5L79.0998 86.5Z" fill="#62B5BE"/>
<path d="M68.5 92.5998L73.8 89.4998L70.7 84.2998L68.5 92.5998Z" fill="#1D6B41"/>
<path d="M73.7998 89.5L76.8998 94.8L79.0998 86.5L73.7998 89.5Z" fill="#00959C"/>
<path d="M73.8 89.5L68.5 92.6L76.9 94.8L73.8 89.5Z" fill="#028B49"/>
<path d="M73.8 89.4998L79.1 86.4998L70.7 84.2998L73.8 89.4998Z" fill="#008489"/>
<path d="M76.9 94.7998L74.5 96.1998V96.3998L74.9 96.7998L75.5 96.1998C75.8 96.3998 76.2 96.4998 76.5 96.4998L76.9 94.7998Z" fill="#C0A415"/>
<path d="M76.9 94.7996L68.5 92.5996L70.4 95.7996C71.5 95.8996 72.6 95.5996 73.4 94.6996L74.5 95.7996L74.4 96.1996L76.9 94.7996Z" fill="#246951"/>
<path d="M68.4999 92.5996L67.8999 94.6996L68.7999 95.5996L68.6999 96.2996L69.0999 96.6996L69.8999 95.8996C70.0999 95.8996 70.1999 95.9996 70.3999 95.9996L68.4999 92.5996Z" fill="#E1E717"/>
<path d="M65.3999 87.2998L68.4999 92.5998L70.6999 84.2998L65.3999 87.2998Z" fill="#BCD500"/>
<path d="M68.4998 92.5996L66.7998 93.5996L67.8998 94.6996L68.4998 92.5996Z" fill="#D5DC26"/>
<path d="M68.4999 92.6L64.5999 91.5L66.7999 93.6L68.4999 92.6Z" fill="#61B400"/>
<path d="M60.0999 90.3999L60.6999 91.4999C61.1999 91.2999 61.6999 91.1999 62.1999 90.9999L60.0999 90.3999Z" fill="#61B400"/>
<path d="M60.0999 90.3999L56.3999 92.4999C57.4999 92.2999 58.6999 92.0999 59.6999 91.7999L60.0999 90.3999Z" fill="#008B0E"/>
<path d="M60.0999 90.3999L59.7 91.7999C60 91.6999 60.4 91.5999 60.7 91.4999L60.0999 90.3999Z" fill="#00981C"/>
<path d="M104 64.8V64.4L99.8 63.5L97.9 63.1L97 62.9H96.8H94.6V61.8V61.3H92.3L91.8 60.8L91.4 60.4H90C89.8 59.7 89.5 59.1 89.2 58.6C88.6 57.5 87.8 56.7 87.1 56.1C86.8 55.9 86.6 55.7 86.3 55.5C86.1 55.3 85.8 55.2 85.5 55C84.6 54.5 83.2 54.1 81.9 53.7C81.1 53.5 80.4 53.3 79.7 53.1C79.6 52.7 79.4 52.4 79.3 52L79.4 56.3L79.6 62.4L79.8 68.5L80 74.6V75.8C81.5 75.4 83.3 74.9 84.6 74.4C85 74.2 85.3 74.1 85.6 73.9C85.8 73.8 85.9 73.7 86 73.7C87.2 72.9 88.8 71.4 89.8 68.8H91.2L91.9 68.1L92.1 67.9H94.4V66.3H96.9L98 66.1L101.7 65.4L104 64.8Z" fill="#61B400"/>
<path d="M97.9 66.0001L101.7 65.3001L99.7 63.5001L97.8 63.1001L97.9 66.0001Z" fill="#E5811B"/>
<path d="M92 67.7999H94.4V66.1999H96.8L97.9 65.9999L97.8 63.0999L96.9 62.8999H96.6L92 67.7999Z" fill="#EFB815"/>
<path d="M101.7 65.3L104 64.8V64.4L99.7002 63.5L101.7 65.3Z" fill="#D93B15"/>
<path d="M79.6001 68.3999L79.8001 74.4999L84.4001 74.2999C84.8001 74.0999 85.1001 73.9999 85.4001 73.7999L79.6001 68.3999Z" fill="#00A29A"/>
<path d="M79.8 74.4998V75.6998C81.3 75.2998 83.1 74.7998 84.4 74.2998L79.8 74.4998Z" fill="#62B5BE"/>
<path d="M79.6001 68.4001L85.7001 68.2001L85.5001 62.1001L79.6001 68.4001Z" fill="#1D6B41"/>
<path d="M85.7002 68.2L85.9002 73.6C87.1002 72.8 88.7002 71.3 89.7002 68.7H91.1002L91.8002 68L85.7002 68.2Z" fill="#00959C"/>
<path d="M85.5 62.1001L85.7 68.2001L91.8 68.0001L85.5 62.1001Z" fill="#028B49"/>
<path d="M85.7001 68.1997L79.6001 68.3997L85.5001 73.8997C85.7001 73.7997 85.8001 73.6997 85.9001 73.6997L85.7001 68.1997Z" fill="#008489"/>
<path d="M91.6001 61.8998L91.9001 67.9998L92.0001 67.7998L96.6001 62.8998H94.4001V61.7998L91.6001 61.8998Z" fill="#C0A415"/>
<path d="M91.6 61.8999L85.5 62.0999L91.8 67.9999H91.9L91.6 61.8999Z" fill="#246951"/>
<path d="M91.6001 61.8997L94.4001 61.7997V61.2997L92.1001 61.1997L91.6001 60.6997V61.8997Z" fill="#B19318"/>
<path d="M85.5 62.1001L91.6 61.9001V60.8001L91.2 60.4001H89.8C89.6 59.7001 89.3 59.1001 89 58.6001L85.5 62.1001Z" fill="#E1E717"/>
<path d="M79.4002 62.2997L85.5002 62.0997L79.2002 56.1997L79.4002 62.2997Z" fill="#8AC200"/>
<path d="M79.4001 62.3001L79.6001 68.4001L85.5001 62.1001L79.4001 62.3001Z" fill="#BCD500"/>
<path d="M85.3 56L85.5 62.1L88.9 58.5C88.3 57.4 87.5 56.6 86.8 56H85.3Z" fill="#D5DC26"/>
<path d="M79.2002 56.2001L85.3002 56.0001V54.9001C84.4002 54.4001 83.0002 54.0001 81.7002 53.6001L79.2002 56.2001Z" fill="#00981C"/>
<path d="M85.3002 55.9999H86.8002C86.5002 55.7999 86.3002 55.5999 86.0002 55.3999C85.8002 55.1999 85.5002 55.0999 85.2002 54.8999L85.3002 55.9999Z" fill="#BCD500"/>
<path d="M79.2001 56.1999L81.7001 53.5999C80.9001 53.3999 80.2001 53.1999 79.5001 52.9999C79.4001 52.5999 79.2001 52.2999 79.1001 51.8999L79.2001 56.1999Z" fill="#008B0E"/>
<path d="M86.1 29.6003L86.9 30.8003L88.5 33.1003L88.3 31.6003L88 29.1003L87.9 28.0003L86.7 27.7003L84.8 27.3003H84.6L82.4 26.8003L84.3 26.2003H84.5L84.8 26.1003L84.1 23.1003L83.7 23.2003L83.5 23.3003L82.1 23.8003L81.1 24.1003L81.4 25.0003L81.9 26.5003L81.1 25.6003L78.9 22.9003L78.8 22.8003L75.5 23.0003H74.7L73.6 23.1003L72 23.2003L74.3 24.0003L74.8 24.2003L75.2 24.3003L77.2 25.0003L80.7 26.2003L81.7 26.5003L80.6 26.4003L79.8 26.3003L76.4 26.0003L75.9 26.5003L73.1 29.4003L71.6 31.0003L73.8 30.2003L76.4 29.2003L79.6 28.0003L81.2 27.4003L81.8 27.2003C81.7 27.4003 81.7 27.5003 81.6 27.7003C81 29.1003 80.1 30.5003 79.2 31.7003C78.9 32.1003 78.6 32.4003 78.3 32.8003C78.1 33.0003 77.9 33.3003 77.6 33.5003C77.4 33.7003 77.2 33.9003 77 34.1003C76.4 34.7003 75.8 35.2003 75.2 35.7003C74.6 36.2003 74.1 36.6003 73.5 37.0003C72.4 37.8003 71.3 38.6003 70.2 39.2003C70 39.3003 69.7 39.5003 69.5 39.6003C68.7 39.0003 67.8 38.4003 66.9 37.9003C65.6 37.2003 64.3 36.5003 63 36.0003C62.5 35.8003 61.9 35.6003 61.4 35.4003C61 35.3003 60.6 35.1003 60.3 35.0003C59.1 34.6003 57.8 34.4003 56.6 34.2003C56.8 33.0003 57 31.9003 57.1 30.8003L55.5 33.6003L60.8 36.7003L66.1 39.7003L71.4 42.7003L75.2 44.9003C75.1 44.8003 75.1 44.7003 75 44.7003C75.5 43.9003 76.1 43.2003 76.7 42.6003C77.3 41.9003 78.1 41.3003 78.8 40.8003C79 40.7003 79.2 40.5003 79.4 40.4003C79.5 40.4003 79.5 40.3003 79.6 40.3003C79.7 40.2003 79.9 40.1003 80 40.1003C81.4 39.3003 82.9 38.8003 84 38.9003L83.9 39.6003L83.4 42.9003L83 43.4003L83.5 42.8003L85.3 40.6003L84.6 39.1003L84.3 38.4003L85 39.0003L86.6 40.4003L88.1 41.7003L88.3 41.9003V41.6003L87.7 38.5003V38.4003H87.4L84.5 38.0003L84.6 36.4003V36.0003L82.7 35.2003L82 34.9003L82.1 35.0003L82 34.9003L81.6 34.7003L82.4 35.7003L84 37.8003L81.9 36.6003H81.8L78.9 38.0003H78.8H78.9L80.9 38.2003L82 38.3003C81.6 38.3003 81.2 38.4003 80.8 38.4003C80.2 38.5003 79.7 38.6003 79.2 38.8003C78.7 39.0003 78.2 39.2003 77.8 39.4003C76.3 40.1003 75 41.0003 73.9 42.0003C73.8 42.1003 73.6 42.2003 73.5 42.4003C73.4 42.5003 73.3 42.6003 73.2 42.8003C73.1 42.7003 72.9 42.5003 72.8 42.4003C72.7 42.3003 72.6 42.2003 72.5 42.1003C72.9 41.7003 73.3 41.3003 73.8 40.9003C74.5 40.2003 75.3 39.3003 76.1 38.4003C76.9 37.5003 77.7 36.5003 78.4 35.5003C78.9 34.8003 79.4 34.1003 79.8 33.4003C80.3 32.6003 80.7 31.9003 81.1 31.1003C81.6 30.0003 82.1 28.9003 82.3 27.8003C82.3 27.7003 82.3 27.7003 82.3 27.6003L82.4 27.9003L83.2 30.6003L83.9 33.1003L84.9 36.3003L85.5 30.6003L85.4 30.5003L85 30.1003L84 28.9003L82.5 27.1003L85.3 29.0003L85.5 29.1003L85.9 29.3003L86.1 29.6003ZM83.8 38.4003C83.8 38.5003 83.8 38.4003 83.8 38.4003V38.4003Z" fill="#BCD500"/>
<path d="M75 23.8L74.7 23L73.7 23.1L75 23.8Z" fill="#D93B15"/>
<path d="M75 23.8001L73.7 23.1001L72 23.2001L74.2 24.0001L75 23.8001Z" fill="#EFB815"/>
<path d="M75 23.8004L75.5 22.9004L74.7 23.0004L75 23.8004Z" fill="#D93B15"/>
<path d="M75 23.8002L78.8 22.8002V22.7002L75.5 22.9002L75 23.8002Z" fill="#9D4719"/>
<path d="M55.2 33.5003L60.5 36.6003L60 35.0003C58.8 34.6003 57.4999 34.4003 56.2999 34.2003C56.4999 33.0003 56.6999 31.9003 56.7999 30.8003L55.2 33.5003Z" fill="#00A29A"/>
<path d="M60.5 36.6004L62.9 36.0004C62.4 35.8004 61.8 35.6004 61.3 35.4004L60.5 36.6004Z" fill="#1D6B41"/>
<path d="M60.4999 36.6L61.1999 35.4C60.7999 35.3 60.3999 35.1 60.0999 35L60.4999 36.6Z" fill="#008489"/>
<path d="M75 23.8003L74.2 24.0003L74.7 24.2003L75 23.8003Z" fill="#F7E500"/>
<path d="M75 23.8003L74.7 24.2003L75.1 24.3003L75 23.8003Z" fill="#F7E500"/>
<path d="M75.6999 26.8003L72.8999 29.7003L73.7999 30.2003L76.3999 29.2003L75.6999 26.8003Z" fill="#B19318"/>
<path d="M72.8999 29.7002L71.5999 31.0002L73.7999 30.2002L72.8999 29.7002Z" fill="#E1E717"/>
<path d="M78.8 22.8003L75 23.8003L77.1 25.0003L80.6 26.3003L81.1 25.4003L78.8 22.8003Z" fill="#593D36"/>
<path d="M80.4 26.6L79.7 26.5L80.3 26.8L80.4 26.6Z" fill="#D5DC26"/>
<path d="M80.3 26.8002L79.7 26.5002L76.2 26.2002L75.8 26.8002L76.4 29.2002L79.6 28.0002L80.3 26.8002Z" fill="#F7E500"/>
<path d="M75 23.8003L75.1 24.3003L77.1 25.0003L75 23.8003Z" fill="#F7E500"/>
<path d="M79.5999 28.0003L81.1999 27.4003L80.2999 26.8003L79.5999 28.0003Z" fill="#D5DC26"/>
<path d="M80.8 31.2002C81.3 30.1002 81.8 29.0002 82 27.9002L81.6 27.7002C81 29.1002 80.1 30.5002 79.2 31.7002L80.8 31.2002Z" fill="#D5DC26"/>
<path d="M82.2 27.9004L82.9 30.6004L84.9 30.1004L83.8 28.9004L82.2 27.9004Z" fill="#D5DC26"/>
<path d="M71.0999 42.7004L70.1999 39.2004C69.9999 39.3004 69.6999 39.5004 69.4999 39.6004C68.6999 39.0004 67.7999 38.4004 66.8999 37.9004L65.8999 39.6004L71.0999 42.7004Z" fill="#8AC200"/>
<path d="M60.5 36.6L65.8 39.6L66.8 37.9C65.5 37.2 64.2 36.5 62.9 36L60.5 36.6Z" fill="#BCD500"/>
<path d="M74.0999 37.4002L75.0999 35.7002C74.4999 36.2002 73.9999 36.6002 73.3999 37.0002L74.0999 37.4002Z" fill="#D5DC26"/>
<path d="M78.4999 40.7004C78.6999 40.6004 78.8999 40.4004 79.0999 40.3004L77.4999 39.4004C75.9999 40.1004 74.6999 41.0004 73.5999 42.0004L78.4999 40.7004Z" fill="#00981C"/>
<path d="M74.1 37.4004L71 42.7004L72.5 42.3004C72.4 42.2004 72.3 42.1004 72.2 42.0004C73.2 41.0004 74.5 39.8004 75.8 38.3004L74.1 37.4004Z" fill="#00981C"/>
<path d="M79.0999 40.3003C79.1999 40.3003 79.1999 40.2003 79.2999 40.2003L78.9999 38.8003C78.4999 39.0003 77.9999 39.2003 77.5999 39.4003L79.0999 40.3003Z" fill="#BCD500"/>
<path d="M74.0999 37.4004L75.7999 38.4004C76.5999 37.5004 77.3999 36.5004 78.0999 35.5004L77.4999 33.4004C76.6999 34.2004 75.8999 34.9004 75.0999 35.6004L74.0999 37.4004Z" fill="#BCD500"/>
<path d="M71.0999 42.7L74.1999 37.4L73.3999 37C72.2999 37.8 71.1999 38.6 70.0999 39.2L71.0999 42.7Z" fill="#61B400"/>
<path d="M79.5 33.5002C80 32.7002 80.4 32.0002 80.8 31.2002L79.1 31.6002C78.8 32.0002 78.5 32.3002 78.2 32.7002L79.5 33.5002Z" fill="#F0C000"/>
<path d="M82.8999 30.6001L83.6999 33.1001L85.1999 30.5001L84.8999 30.1001L82.8999 30.6001Z" fill="#F0C000"/>
<path d="M82.5 35.1003L81.8 34.8003L82.5 35.2003V35.1003Z" fill="#F0C000"/>
<path d="M84.5 36.3001V35.9001L82.5 35.1001V35.2001L84.5 36.3001Z" fill="#61B400"/>
<path d="M83.7 33.1L84.7 36.3L85.3 30.6L85.2 30.5L83.7 33.1Z" fill="#E57F00"/>
<path d="M78.1 35.5002C78.6 34.8002 79.1 34.1002 79.5 33.4002L78.2 32.7002C78 32.9002 77.8 33.2002 77.5 33.4002L78.1 35.5002Z" fill="#90C32F"/>
<path d="M82.4999 35.2001L81.7999 34.8001L81.3999 34.6001L82.1999 35.6001L82.4999 35.2001Z" fill="#90C32F"/>
<path d="M79.3 40.1004C79.4 40.0004 79.6 39.9004 79.7 39.9004L80.6 38.4004C80 38.5004 79.5 38.6004 79 38.8004L79.3 40.1004Z" fill="#90C32F"/>
<path d="M81.7 36.6L81.6 36.5L78.7 37.9H78.8L80.8 38.1L81.7 36.6Z" fill="#90C32F"/>
<path d="M79.7 39.9003C81.1 39.1003 82.6 38.6003 83.7 38.7003L83.6 39.4003L84.6 39.1003L84.3 38.4003L85 39.0003L87.3 38.4003L84.4 38.0003L84.5 36.4003L82.5 35.3003L82.2 35.8003L83.8 37.9003L81.7 36.7003L80.8 38.2003L82 38.3003C81.6 38.3003 81.1 38.4003 80.7 38.4003L79.7 39.9003ZM83.8 38.5003C83.8 38.5003 83.8 38.4003 83.8 38.5003V38.5003Z" fill="#61B400"/>
<path d="M71.0999 42.7003L74.8999 44.9003C74.7999 44.8003 74.7999 44.7003 74.6999 44.7003C75.6999 43.2003 76.9999 41.8003 78.4999 40.8003L73.6999 42.0003C73.3999 42.2003 73.1999 42.5003 72.9999 42.7003C72.8999 42.6003 72.6999 42.4003 72.5999 42.3003L71.0999 42.7003Z" fill="#008B0E"/>
<path d="M86.5999 40.4L88.0999 41.7L88.1999 41.6L87.5999 38.5L86.5999 40.4Z" fill="#236D4D"/>
<path d="M85 39.0004L86.6 40.4004L87.6 38.5004V38.4004H87.3L85 39.0004Z" fill="#00981C"/>
<path d="M83.5999 39.3001L83.0999 42.6001L83.4999 42.8001L85.2999 40.6001L84.5999 39.1001L83.5999 39.3001Z" fill="#00981C"/>
<path d="M83 43.4001L83.5 42.8001L83.1 42.6001L83 43.4001Z" fill="#156B6B"/>
<path d="M85.7 29.4002L86.2 29.6002V29.7002L88.1 29.2002L87.9 28.0002L86.7 27.7002L85.7 29.4002Z" fill="#F7E500"/>
<path d="M86.2 29.7002L87 30.9002L88.4 31.7002L88.1 29.2002L86.2 29.7002Z" fill="#F0C000"/>
<path d="M87 30.9004L88.6 33.2004L88.4 31.7004L87 30.9004Z" fill="#F0B533"/>
<path d="M88.2999 41.9001L88.1999 41.6001L88.0999 41.7001L88.2999 41.9001Z" fill="#236D4D"/>
<path d="M84.8 27.2004L82.4 26.6004L84.5 26.0004L84.8 25.9004L84.1 22.9004L83.7 23.0004L83.5 23.1004L82.1 23.6004L81.1 23.9004L81.4 24.8004L81.9 26.3004L81.1 25.4004L80.6 26.2004L81.6 26.6004L80.4 26.5004L80.2 26.8004L81.1 27.3004L81.7 27.1004C81.6 27.3004 81.6 27.4004 81.5 27.6004L81.9 27.8004C81.9 27.7004 81.9 27.7004 82 27.6004L82.1 27.9004L83.8 28.9004L82.2 27.1004L85.3 29.1004L85.7 29.4004L86.7 27.7004L84.8 27.2004Z" fill="#F0C000"/>
<path d="M46.4001 34.2999C45.1001 34.4999 43.8001 34.7999 42.6001 35.1999C42.2001 35.2999 41.8001 35.4999 41.4001 35.5999C40.8001 35.7999 40.3001 35.9999 39.7001 36.2999C38.4001 36.8999 37.1001 37.5999 35.9001 38.2999C35.6001 38.4999 35.3001 38.6999 35.0001 38.8999L33.2001 37.3999L31.7001 36.1999L28.7001 33.7999L27.3001 32.6999L32.3001 32.7999H34.2001H34.9001L35.0001 30.3999H34.8001L30.8001 30.2999H29.8001L26.0001 30.0999V31.6999L25.7001 31.4999L24.8001 30.8999L24.9001 26.0999V23.9999V21.8999L22.4001 21.9999V23.3999L22.3001 27.6999V28.0999V30.7999L24.1001 30.8999H24.4001V31.1999L24.3001 31.2999L23.3001 32.1999H21.5001L17.5001 32.0999H16.9001H16.7001H15.7001H14.1001V33.0999V34.5999L16.1001 34.6999H16.3001L19.1001 34.7999L22.7001 34.8999H23.0001V34.6999V32.9999L23.9001 34.1999L24.3001 34.6999V37.8999V41.0999V41.7999V42.8999L26.7001 42.9999V42.2999L26.8001 39.4999V38.4999L27.3001 39.1999L30.4001 42.9999C30.3001 43.0999 30.3001 43.0999 30.2001 43.1999C29.3001 44.0999 28.5001 44.9999 27.8001 45.9999L31.8001 43.4999L37.0001 40.2999L42.2001 37.0999L46.4001 34.2999Z" fill="#8AC200"/>
<path d="M24.8 23.9999L24.9 21.8999L22.4 21.9999L22.3 23.3999L24.8 23.9999Z" fill="#9D4719"/>
<path d="M42.2 36.8998L46.4 34.2998C45.1 34.4998 43.7999 34.7998 42.5999 35.1998L42.2 36.8998Z" fill="#00A29A"/>
<path d="M42.2 36.9001L41.4 35.6001C40.8 35.8001 40.3 36.0001 39.7 36.3001L42.2 36.9001Z" fill="#1D6B41"/>
<path d="M42.1999 36.9002L42.5999 35.2002C42.1999 35.3002 41.7999 35.5002 41.3999 35.6002L42.1999 36.9002Z" fill="#008489"/>
<path d="M25.3 33.0001L29.8 30.2001L26 30.1001V31.7001L25.7001 31.5001L25.3 33.0001Z" fill="#B19318"/>
<path d="M25.3 33.0002L28.7001 33.8002L27.4 32.6002L32.4001 32.7002L30.8 30.2002H29.8L25.3 33.0002Z" fill="#E1E717"/>
<path d="M24.8 26.0999V23.9999L22.3 23.3999V27.6999L24.8 26.0999Z" fill="#593D36"/>
<path d="M25.3 33.0001L25.7001 31.5001L24.7001 30.9001L24.8 26.1001L22.3 27.7001V28.1001L24 30.8001L24.3 30.9001V31.1001L24.2001 31.2001L25.3 33.0001Z" fill="#F7E500"/>
<path d="M22.2999 28.1001L22.2 30.8001H24L22.2999 28.1001Z" fill="#D5DC26"/>
<path d="M25.3 33.0002L24.2 31.2002L23.3 32.1002H21.5L25.3 33.0002Z" fill="#D5DC26"/>
<path d="M42.1999 36.8998L39.6999 36.2998C38.3999 36.8998 37.0999 37.5998 35.8999 38.2998L36.9999 40.0998L42.1999 36.8998Z" fill="#BCD500"/>
<path d="M25.3 33L28.6 38.1L31.7001 36.2L28.7001 33.8L25.3 33Z" fill="#D5DC26"/>
<path d="M31.8 43.3001L28.6 38.1001L27.3 38.9001L30.4 42.7001C30.3 42.8001 30.3001 42.8001 30.2001 42.9001L31.8 43.3001Z" fill="#00981C"/>
<path d="M24.2 40.7998V41.5998L26.7 42.0998V39.2998L24.2 40.7998Z" fill="#00981C"/>
<path d="M28.6 38.1L25.2999 33L24.2999 37.6L24.2 40.8L26.7 39.3L26.7999 38.3L27.2999 38.9L28.6 38.1Z" fill="#BCD500"/>
<path d="M28.6001 38.1002L31.8001 43.3002L33.2001 37.4002L31.7001 36.2002L28.6001 38.1002Z" fill="#61B400"/>
<path d="M17.5 32H16.9L16.3 34.5H19.1L17.5 32Z" fill="#E57F00"/>
<path d="M25.2999 33L23.8999 33.9L24.2999 34.4V37.6L25.2999 33Z" fill="#90C32F"/>
<path d="M21.5 32.1L17.5 32L19.1 34.5L22.7 34.6H23V34.4L22.9 34.5L23 34.4V32.7L23.9 33.9L25.3 33L21.5 32.1Z" fill="#F0C000"/>
<path d="M31.8 43.3L30.2001 43C29.3001 43.9 28.5 44.8 27.8 45.8L31.8 43.3Z" fill="#008B0E"/>
<path d="M24.2 41.6001V42.7001L26.6 42.8001L26.7 42.1001L24.2 41.6001Z" fill="#008B0E"/>
<path d="M15.6001 31.8999H14.1001V32.8999L15.6001 31.8999Z" fill="#F0C000"/>
<path d="M16.7001 31.9999L15.6001 31.8999L14.1001 32.8999V34.3999L16.1001 34.4999H16.3001L16.9001 31.9999H16.7001Z" fill="#F0B533"/>
<path d="M34.8 30.3002L30.8 30.2002L32.4001 32.7002L35 32.8002L35.1 30.3002H34.8Z" fill="#246951"/>
</g>
<defs>
<clipPath id="clip0_846:29304">
<rect width="104" height="120" fill="white"/>
</clipPath>
</defs>
</svg>
